<?xml version="1.0" encoding="utf-8"?>
<!-- Generator: Adobe Illustrator 24.3.0, SVG Export Plug-In . SVG Version: 6.00 Build 0)  -->
<svg version="1.1" id="Layer_1" xmlns="http://www.w3.org/2000/svg" xmlns:xlink="http://www.w3.org/1999/xlink" x="0px" y="0px"
	 viewBox="0 0 49.7 32.2" style="enable-background:new 0 0 49.7 32.2;" xml:space="preserve">
<style type="text/css">
	.st0{fill:none;}
	.st1{fill:none;stroke:#0602F0;stroke-width:0.4894;stroke-miterlimit:10;}
	.st2{fill:none;stroke:#0602F0;stroke-width:0.4793;stroke-miterlimit:10;}
	.st3{fill:none;stroke:#0602F0;stroke-width:0.4561;stroke-miterlimit:10;}
	.st4{fill:none;stroke:#7C08F2;stroke-linecap:round;stroke-miterlimit:10;}
	.st5{fill:none;stroke:#F400EF;stroke-width:0.75;stroke-linecap:round;stroke-miterlimit:10;}
	.st6{fill:none;stroke:#7C08F2;stroke-width:1.75;stroke-linecap:round;stroke-miterlimit:10;}
	.st7{fill:none;stroke:#7C08F2;stroke-width:2.0432;stroke-linecap:round;stroke-miterlimit:10;}
	.st8{fill:none;stroke:#5D1DF6;stroke-width:0.844;stroke-miterlimit:10;}
</style>
<g>
	<path d="M28.2,95c-7.6,0-15.2,0-22.9,0c-1.8-0.7-2.4-1.5-2.4-3.4c0-4.1,0-8.3,0-12.4c0-3.5,0-6.9,0-10.4c0-0.4-0.1-0.8-0.4-1
		c-1.3-1.1-1.7-2.6-1.3-4.2C1.6,62,3,60.8,4.7,60.7c1,0,2,0,3,0c1.1,0,2.3,0,3.4,0c0.3,0,0.5-0.1,0.5-0.5c0-0.3,0-0.6,0-1
		c0-0.5,0.2-1,0.6-1.4c0.4-0.4,0.9-0.4,1.5-0.4c2.1,0,4.2,0,6.4,0c0.2,0,0.5,0,0.7,0.1c0.9,0.1,1.4,0.7,1.5,1.5
		c0,0.4,0.1,0.7,0.1,1.1c0,0.6,0,0.6,0.6,0.6c1.8,0,3.6,0,5.3,0c1,0,2,0.1,2.8,0.8c2,1.6,2,4.7,0,6.3c-0.2,0.1-0.4,0.4-0.4,0.7
		c0,2.5,0,5,0,7.5c0,3.5-0.1,6.9,0,10.4c0,1.8,0,3.7,0,5.5c0,0.7-0.2,1.4-0.7,2C29.5,94.5,28.9,94.8,28.2,95z M28.4,80.6L28.4,80.6
		c0-3.7,0-7.4,0-11.1c0-0.6,0-0.6-0.7-0.6c-7.2,0-14.5,0-21.7,0c-0.7,0-0.7,0-0.7,0.7c0,3.9,0,7.7,0,11.6c0,3.5,0,7.1,0,10.6
		c0,0.9,0.3,1.2,1.2,1.2c0.1,0,0.1,0,0.2,0c6.8,0,13.5,0,20.3,0c1.1,0,1.4-0.3,1.4-1.3C28.4,88,28.4,84.3,28.4,80.6z M16.9,66.3
		c2.9,0,5.8,0,8.6,0c1.1,0,2.2,0,3.3,0c0.7,0,1.1-0.3,1.4-0.9c0.2-0.4,0.2-0.9,0.1-1.4c-0.2-0.9-0.7-1.3-1.7-1.3c-0.4,0-0.9,0-1.3,0
		c-6.9,0-13.8,0-20.7,0c-0.6,0-1.2,0-1.8,0c-0.3,0-0.6,0.1-0.8,0.3c-0.6,0.5-0.8,1.5-0.4,2.3c0.3,0.7,0.9,0.9,1.7,0.9
		C9.1,66.3,13,66.3,16.9,66.3z M17,60.6c0.9,0,1.7,0,2.6,0c0.3,0,0.5-0.1,0.5-0.5c0-0.6-0.1-0.7-0.7-0.6c-0.2,0-0.3,0-0.5,0
		c-1.5,0-2.9,0-4.4,0c-0.5,0-0.6,0.1-0.6,0.5c0,0.5,0,0.5,0.6,0.5C15.3,60.6,16.1,60.6,17,60.6z"/>
	<path d="M9.4,81.1c0-2.8,0-5.6,0-8.4c0-0.2,0-0.5,0.1-0.7c0.1-0.4,0.5-0.7,0.9-0.7s0.8,0.3,1,0.7c0.1,0.2,0.1,0.5,0.1,0.7
		c0,5.6,0,11.2,0,16.8c0,0.2,0,0.4-0.1,0.7c-0.1,0.4-0.5,0.8-1,0.8c-0.4,0-0.8-0.3-1-0.8c-0.1-0.2-0.1-0.4-0.1-0.7
		C9.4,86.7,9.4,83.9,9.4,81.1z"/>
	<path d="M24,81c0,2.8,0,5.6,0,8.4c0,0.2,0,0.5-0.1,0.7c-0.1,0.4-0.5,0.7-1,0.7c-0.4,0-0.8-0.3-0.9-0.7c-0.1-0.2-0.1-0.5-0.1-0.7
		c0-5.6,0-11.3,0-16.9c0-0.2,0-0.4,0.1-0.6c0.1-0.4,0.5-0.7,0.9-0.7s0.8,0.3,1,0.7c0.1,0.2,0.1,0.5,0.1,0.7C24,75.3,24,78.2,24,81z"
		/>
	<path d="M16,81.4c0-2.8,0-5.6,0-8.5c0-0.3,0-0.5,0.1-0.8c0.2-0.4,0.5-0.6,0.9-0.6s0.7,0.2,0.9,0.6c0.1,0.2,0.1,0.5,0.1,0.8
		c0,5.6,0,11.3,0,16.9c0,0.3,0,0.5-0.1,0.8c-0.2,0.4-0.5,0.6-0.9,0.6s-0.8-0.3-0.9-0.7C16,90.3,16,90,16,89.8C16,87,16,84.2,16,81.4
		z"/>
</g>
<g>
	<rect x="794.5" y="1407.3" class="st0" width="16.6" height="7.8"/>
	
		<text transform="matrix(1.0881 0 0 1 794.5509 1412.4191)" style="fill:#0000FF; font-family:'MicrosoftSansSerif'; font-size:7.1468px;">save</text>
	<path class="st1" d="M811,1417.3h-15.5c-1.1,0-2-0.9-2-2v-8.8c0-1.1,0.9-2,2-2H811c1.1,0,2,0.9,2,2v8.8
		C813,1416.5,812.1,1417.3,811,1417.3z"/>
	<g>
		<g>
			<path class="st2" d="M665.5,1416.7c5.4,0,10.7,0,16,0c0-4.9,0-9.8,0-14.7c-5.3,0-10.7,0-16,0
				C665.5,1406.9,665.5,1411.8,665.5,1416.7z"/>
			<path class="st2" d="M665.5,1416.7c0-4.9,0-9.8,0-14.7c5.3,0,10.7,0,16,0c0,4.9,0,9.8,0,14.7
				C676.1,1416.7,670.8,1416.7,665.5,1416.7z"/>
		</g>
		<path class="st2" d="M665.9,1416.2c0,0,7.2-5.1,7.8-5.2c0.6,0,7.3,5.2,7.3,5.2"/>
		<path class="st2" d="M672.5,1411.7c-0.4-0.5-1.1-0.8-1.9-0.8c-1.3,0-2.4,1-2.4,2.3c0,0.4,0.1,0.8,0.4,1.2L672.5,1411.7z"/>
	</g>
	<g>
		<line class="st3" x1="705.4" y1="1402.7" x2="724.5" y2="1402.7"/>
		<line class="st3" x1="715" y1="1402.7" x2="715" y2="1418"/>
	</g>
	<g>
		<path class="st2" d="M641.5,1402c0,0.3-0.2,0.5-0.5,0.5h-4.2c-0.3,0-0.5-0.2-0.5-0.5v-0.5c0-0.3,0.2-0.5,0.5-0.5h4.2
			c0.3,0,0.5,0.2,0.5,0.5V1402z"/>
		<line class="st2" x1="636.7" y1="1407.8" x2="636.7" y2="1415.5"/>
		<line class="st2" x1="641" y1="1407.9" x2="641" y2="1415.6"/>
		<path class="st2" d="M632.7,1405.3c0,0.1,0,0.2,0,0.3v10.5c0,0.9,0.8,1.7,1.9,1.7h8.7c1,0,1.9-0.7,1.9-1.7v-10.5
			c0-0.1,0-0.2,0-0.3"/>
		<path class="st2" d="M646,1404.3c0,0.7-0.5,1.2-1.1,1.2h-12c-0.6,0-1.1-0.5-1.1-1.2v-0.6c0-0.7,0.5-1.2,1.1-1.2h12
			c0.6,0,1.1,0.5,1.1,1.2V1404.3z"/>
	</g>
	<g>
		<line class="st2" x1="752.5" y1="1399.3" x2="751" y2="1402.5"/>
		<line class="st2" x1="752.5" y1="1399.3" x2="754.1" y2="1402.5"/>
		<circle class="st2" cx="757.2" cy="1413" r="4.7"/>
		<line class="st2" x1="752.5" y1="1413" x2="752.5" y2="1399.3"/>
		<circle class="st2" cx="757.2" cy="1413" r="1.7"/>
	</g>
</g>
<rect x="109.7" y="136.7" class="st0" width="16.6" height="7.8"/>
<text transform="matrix(1.0881 0 0 1 109.7135 141.8014)" style="fill:#0000FF; font-family:'MicrosoftSansSerif'; font-size:7.1468px;">save</text>
<path class="st1" d="M126.2,146.7h-15.5c-1.1,0-2-0.9-2-2v-8.8c0-1.1,0.9-2,2-2h15.5c1.1,0,2,0.9,2,2v8.8
	C128.1,145.8,127.2,146.7,126.2,146.7z"/>
<g>
	<g>
		<path class="st2" d="M-19.4,146.1c5.4,0,10.7,0,16,0c0-4.9,0-9.8,0-14.7c-5.3,0-10.7,0-16,0C-19.4,136.3-19.4,141.2-19.4,146.1z"
			/>
		<path class="st2" d="M-19.4,146.1c0-4.9,0-9.8,0-14.7c5.3,0,10.7,0,16,0c0,4.9,0,9.8,0,14.7C-8.7,146.1-14,146.1-19.4,146.1z"/>
	</g>
	<path class="st2" d="M-18.9,145.6c0,0,7.2-5.1,7.8-5.2c0.6,0,7.3,5.2,7.3,5.2"/>
	<path class="st2" d="M-12.3,141.1c-0.4-0.5-1.1-0.8-1.9-0.8c-1.3,0-2.4,1-2.4,2.3c0,0.4,0.1,0.8,0.4,1.2L-12.3,141.1z"/>
</g>
<g>
	<line class="st3" x1="20.6" y1="132.1" x2="39.6" y2="132.1"/>
	<line class="st3" x1="30.1" y1="132.1" x2="30.1" y2="147.4"/>
</g>
<g>
	<path class="st2" d="M-43.3,131.4c0,0.3-0.2,0.5-0.5,0.5h-4.3c-0.3,0-0.5-0.2-0.5-0.5v-0.5c0-0.3,0.2-0.5,0.5-0.5h4.2
		c0.3,0,0.5,0.2,0.5,0.5L-43.3,131.4z"/>
	<line class="st2" x1="-48.2" y1="137.1" x2="-48.2" y2="144.8"/>
	<line class="st2" x1="-43.8" y1="137.3" x2="-43.8" y2="145"/>
	<path class="st2" d="M-52.1,134.7c0,0.1,0,0.2,0,0.3v10.5c0,0.9,0.8,1.7,1.9,1.7h8.7c1,0,1.9-0.7,1.9-1.7V135c0-0.1,0-0.2,0-0.3"/>
	<path class="st2" d="M-38.9,133.6c0,0.7-0.5,1.2-1.1,1.2h-12c-0.6,0-1.1-0.5-1.1-1.2V133c0-0.7,0.5-1.2,1.1-1.2h12
		c0.6,0,1.1,0.5,1.1,1.2C-38.9,133.1-38.9,133.6-38.9,133.6z"/>
</g>
<circle class="st2" cx="70.8" cy="142.3" r="4.7"/>
<g>
	<line class="st2" x1="75.6" y1="128.7" x2="77.1" y2="131.9"/>
	<line class="st2" x1="75.6" y1="128.7" x2="74" y2="131.9"/>
	<line class="st2" x1="75.6" y1="142.3" x2="75.6" y2="128.7"/>
</g>
<circle class="st2" cx="70.8" cy="142.3" r="1.7"/>
<g>
	<g>
		<polyline class="st4" points="-53.5,22.5 -58.4,23.1 -58,18.2 		"/>
		<path class="st4" d="M-53.5,22.5l7.7-8.1c0.1-0.1,0.1-0.2,0-0.3l-4.1-3.9c-0.1-0.1-0.2-0.1-0.4,0l-7.6,8.1"/>
		<line class="st4" x1="-52.2" y1="12" x2="-47.7" y2="16.3"/>
		<line class="st4" x1="-58" y1="18.8" x2="-54" y2="22.5"/>
	</g>
</g>
<image style="overflow:visible;enable-background:new    ;" width="529" height="563" xlink:href="../../block de notas/67CCA6BE.jpg"  transform="matrix(5.706926e-02 0 0 5.706926e-02 -74.9845 64.8803)">
</image>
<line class="st5" x1="-56.5" y1="62.9" x2="-50.9" y2="62.9"/>
<path class="st6" d="M-107.8,84.7V72c0-1.3-1-2.3-2.3-2.3h-15.7c-1.3,0-2.3,1-2.3,2.3v18.7c0,1.3,1,2.3,2.3,2.3h9.7"/>
<g>
	<line class="st6" x1="-123.8" y1="74.6" x2="-112.7" y2="74.6"/>
	<line class="st6" x1="-123.8" y1="79.9" x2="-119" y2="79.9"/>
	<line class="st6" x1="-123.8" y1="77.3" x2="-112.7" y2="77.3"/>
</g>
<line class="st6" x1="-29.4" y1="68.5" x2="-18.3" y2="68.5"/>
<line class="st6" x1="-28.8" y1="115.5" x2="-17.7" y2="115.5"/>
<line class="st6" x1="-70.9" y1="116.5" x2="-66.1" y2="116.5"/>
<line class="st6" x1="-70.9" y1="113.9" x2="-59.8" y2="113.9"/>
<path class="st6" d="M-16.2,128.7h-13.7c-2.1,0-3.8-1.7-3.8-3.8v-18.8c0-2.1,1.7-3.8,3.8-3.8h13.7c2.1,0,3.8,1.7,3.8,3.8v18.8
	C-12.4,127-14.1,128.7-16.2,128.7z"/>
<path class="st7" d="M-91.3,117.3h-13c-1.9,0-3.5-1.6-3.5-3.5V97.2c0-1.9,1.6-3.5,3.5-3.5h13c1.9,0,3.5,1.6,3.5,3.5v16.6
	C-87.8,115.7-89.4,117.3-91.3,117.3z"/>
<path class="st6" d="M-14.1,89.2h-18.3c-1.5,0-2.7-1.2-2.7-2.7v-22c0-1.5,1.2-2.7,2.7-2.7h18.3c1.5,0,2.7,1.2,2.7,2.7v22
	C-11.3,88-12.6,89.2-14.1,89.2z"/>
<line class="st6" x1="-29.4" y1="74.5" x2="-18.3" y2="74.5"/>
<path class="st6" d="M-43.4,30.3h-18.3c-1.5,0-2.7-1.2-2.7-2.7v-22c0-1.5,1.2-2.7,2.7-2.7h18.3c1.5,0,2.7,1.2,2.7,2.7v22
	C-40.7,29.1-41.9,30.3-43.4,30.3z"/>
<g>
	<path class="st8" d="M40,20.5c2.7,0.2,5.2,1.3,6.8,3.1"/>
	<path class="st8" d="M48.8,31.6c0.1-0.7,0.2-1.3,0.2-2c0-2.3-0.8-4.3-2.2-5.9"/>
	<path class="st8" d="M39.5,20.5c-5,0.4-8.9,4.3-8.9,9.1c0,0.7,0.1,1.4,0.2,2"/>
	<ellipse class="st8" cx="40" cy="13.7" rx="6.7" ry="6.8"/>
	<g>
		<path class="st8" d="M14.4,20.7c-2.9,0.2-5.4,1.8-6.9,4.1"/>
		<path class="st8" d="M15.8,20.7"/>
		<ellipse class="st8" cx="14.9" cy="13.9" rx="6.7" ry="6.8"/>
	</g>
	<path class="st8" d="M15.8,20.7c2.9,0.2,5.4,1.8,6.9,4.1"/>
	<path class="st8" d="M28,22.1c0,1.6-1.5,2.9-3.3,2.9H4.1c-1.8,0-3.3-1.3-3.3-2.9V3.8c0-1.6,1.5-2.9,3.3-2.9h20.7
		c1.8,0,3.3,1.3,3.3,2.9V22.1z"/>
</g>
</svg>
