<?xml version="1.0" encoding="utf-8"?>
<!-- Generator: Adobe Illustrator 24.3.0, SVG Export Plug-In . SVG Version: 6.00 Build 0)  -->
<svg version="1.1" id="Layer_1" xmlns="http://www.w3.org/2000/svg" xmlns:xlink="http://www.w3.org/1999/xlink" x="0px" y="0px"
	 viewBox="0 0 49.1 30.5" style="enable-background:new 0 0 49.1 30.5;" xml:space="preserve">
<style type="text/css">
	.st0{fill:none;}
	.st1{fill:none;stroke:#0602F0;stroke-width:0.4894;stroke-miterlimit:10;}
	.st2{fill:none;stroke:#0602F0;stroke-width:0.4793;stroke-miterlimit:10;}
	.st3{fill:none;stroke:#0602F0;stroke-width:0.4561;stroke-miterlimit:10;}
	.st4{fill:none;stroke:#7C08F2;stroke-linecap:round;stroke-miterlimit:10;}
	.st5{fill:none;stroke:#F400EF;stroke-width:0.75;stroke-linecap:round;stroke-miterlimit:10;}
	.st6{fill:none;stroke:#7C08F2;stroke-width:1.75;stroke-linecap:round;stroke-miterlimit:10;}
	.st7{fill:none;stroke:#7C08F2;stroke-width:2.0432;stroke-linecap:round;stroke-miterlimit:10;}
	.st8{fill:none;stroke:#5D1DF6;stroke-miterlimit:10;}
</style>
<g>
	<path d="M28.2,93.9c-7.6,0-15.2,0-22.9,0c-1.8-0.7-2.4-1.5-2.4-3.4c0-4.1,0-8.3,0-12.4c0-3.5,0-6.9,0-10.4c0-0.4-0.1-0.8-0.4-1
		c-1.3-1.1-1.7-2.6-1.3-4.2c0.4-1.6,1.8-2.8,3.5-2.9c1,0,2,0,3,0c1.1,0,2.3,0,3.4,0c0.3,0,0.5-0.1,0.5-0.5c0-0.3,0-0.6,0-1
		c0-0.5,0.2-1,0.6-1.4c0.4-0.4,0.9-0.4,1.5-0.4c2.1,0,4.2,0,6.4,0c0.2,0,0.5,0,0.7,0.1c0.9,0.1,1.4,0.7,1.5,1.5
		c0,0.4,0.1,0.7,0.1,1.1c0,0.6,0,0.6,0.6,0.6c1.8,0,3.6,0,5.3,0c1,0,2,0.1,2.8,0.8c2,1.6,2,4.7,0,6.3c-0.2,0.1-0.4,0.4-0.4,0.7
		c0,2.5,0,5,0,7.5c0,3.5-0.1,6.9,0,10.4c0,1.8,0,3.7,0,5.5c0,0.7-0.2,1.4-0.7,2C29.5,93.4,28.9,93.7,28.2,93.9z M28.4,79.5
		L28.4,79.5c0-3.7,0-7.4,0-11.1c0-0.6,0-0.6-0.7-0.6c-7.2,0-14.5,0-21.7,0c-0.7,0-0.7,0-0.7,0.7c0,3.9,0,7.7,0,11.6
		c0,3.5,0,7.1,0,10.6c0,0.9,0.3,1.2,1.2,1.2c0.1,0,0.1,0,0.2,0c6.8,0,13.5,0,20.3,0c1.1,0,1.4-0.3,1.4-1.3
		C28.4,86.9,28.4,83.2,28.4,79.5z M16.9,65.2c2.9,0,5.8,0,8.6,0c1.1,0,2.2,0,3.3,0c0.7,0,1.1-0.3,1.4-0.9c0.2-0.4,0.2-0.9,0.1-1.4
		c-0.2-0.9-0.7-1.3-1.7-1.3c-0.4,0-0.9,0-1.3,0c-6.9,0-13.8,0-20.7,0c-0.6,0-1.2,0-1.8,0c-0.3,0-0.6,0.1-0.8,0.3
		c-0.6,0.5-0.8,1.5-0.4,2.3c0.3,0.7,0.9,0.9,1.7,0.9C9.1,65.2,13,65.2,16.9,65.2z M17,59.5c0.9,0,1.7,0,2.6,0c0.3,0,0.5-0.1,0.5-0.5
		c0-0.6-0.1-0.7-0.7-0.6c-0.2,0-0.3,0-0.5,0c-1.5,0-2.9,0-4.4,0c-0.5,0-0.6,0.1-0.6,0.5c0,0.5,0,0.5,0.6,0.5
		C15.3,59.5,16.1,59.5,17,59.5z"/>
	<path d="M9.4,80c0-2.8,0-5.6,0-8.4c0-0.2,0-0.5,0.1-0.7c0.1-0.4,0.5-0.7,0.9-0.7s0.8,0.3,1,0.7c0.1,0.2,0.1,0.5,0.1,0.7
		c0,5.6,0,11.2,0,16.8c0,0.2,0,0.4-0.1,0.7c-0.1,0.4-0.5,0.8-1,0.8c-0.4,0-0.8-0.3-1-0.8c-0.1-0.2-0.1-0.4-0.1-0.7
		C9.4,85.6,9.4,82.8,9.4,80z"/>
	<path d="M24,79.9c0,2.8,0,5.6,0,8.4c0,0.2,0,0.5-0.1,0.7c-0.1,0.4-0.5,0.7-1,0.7c-0.4,0-0.8-0.3-0.9-0.7c-0.1-0.2-0.1-0.5-0.1-0.7
		c0-5.6,0-11.3,0-16.9c0-0.2,0-0.4,0.1-0.6c0.1-0.4,0.5-0.7,0.9-0.7s0.8,0.3,1,0.7C24,71,24,71.3,24,71.5C24,74.2,24,77.1,24,79.9z"
		/>
	<path d="M16,80.3c0-2.8,0-5.6,0-8.5c0-0.3,0-0.5,0.1-0.8c0.2-0.4,0.5-0.6,0.9-0.6s0.7,0.2,0.9,0.6c0.1,0.2,0.1,0.5,0.1,0.8
		c0,5.6,0,11.3,0,16.9c0,0.3,0,0.5-0.1,0.8c-0.2,0.4-0.5,0.6-0.9,0.6s-0.8-0.3-0.9-0.7C16,89.2,16,88.9,16,88.7
		C16,85.9,16,83.1,16,80.3z"/>
</g>
<g>
	<rect x="794.5" y="1406.2" class="st0" width="16.6" height="7.8"/>
	
		<text transform="matrix(1.0881 0 0 1 794.5509 1411.3662)" style="fill:#0000FF; font-family:'MicrosoftSansSerif'; font-size:7.1468px;">save</text>
	<path class="st1" d="M811,1416.2h-15.5c-1.1,0-2-0.9-2-2v-8.8c0-1.1,0.9-2,2-2H811c1.1,0,2,0.9,2,2v8.8
		C813,1415.4,812.1,1416.2,811,1416.2z"/>
	<g>
		<g>
			<path class="st2" d="M665.5,1415.6c5.4,0,10.7,0,16,0c0-4.9,0-9.8,0-14.7c-5.3,0-10.7,0-16,0
				C665.5,1405.8,665.5,1410.7,665.5,1415.6z"/>
			<path class="st2" d="M665.5,1415.6c0-4.9,0-9.8,0-14.7c5.3,0,10.7,0,16,0c0,4.9,0,9.8,0,14.7
				C676.1,1415.6,670.8,1415.6,665.5,1415.6z"/>
		</g>
		<path class="st2" d="M665.9,1415.1c0,0,7.2-5.1,7.8-5.2c0.6,0,7.3,5.2,7.3,5.2"/>
		<path class="st2" d="M672.5,1410.6c-0.4-0.5-1.1-0.8-1.9-0.8c-1.3,0-2.4,1-2.4,2.3c0,0.4,0.1,0.8,0.4,1.2L672.5,1410.6z"/>
	</g>
	<g>
		<line class="st3" x1="705.4" y1="1401.6" x2="724.5" y2="1401.6"/>
		<line class="st3" x1="715" y1="1401.6" x2="715" y2="1416.9"/>
	</g>
	<g>
		<path class="st2" d="M641.5,1400.9c0,0.3-0.2,0.5-0.5,0.5h-4.2c-0.3,0-0.5-0.2-0.5-0.5v-0.5c0-0.3,0.2-0.5,0.5-0.5h4.2
			c0.3,0,0.5,0.2,0.5,0.5V1400.9z"/>
		<line class="st2" x1="636.7" y1="1406.7" x2="636.7" y2="1414.4"/>
		<line class="st2" x1="641" y1="1406.8" x2="641" y2="1414.5"/>
		<path class="st2" d="M632.7,1404.2c0,0.1,0,0.2,0,0.3v10.5c0,0.9,0.8,1.7,1.9,1.7h8.7c1,0,1.9-0.7,1.9-1.7v-10.5
			c0-0.1,0-0.2,0-0.3"/>
		<path class="st2" d="M646,1403.2c0,0.7-0.5,1.2-1.1,1.2h-12c-0.6,0-1.1-0.5-1.1-1.2v-0.6c0-0.7,0.5-1.2,1.1-1.2h12
			c0.6,0,1.1,0.5,1.1,1.2V1403.2z"/>
	</g>
	<g>
		<line class="st2" x1="752.5" y1="1398.2" x2="751" y2="1401.4"/>
		<line class="st2" x1="752.5" y1="1398.2" x2="754.1" y2="1401.4"/>
		<circle class="st2" cx="757.2" cy="1411.9" r="4.7"/>
		<line class="st2" x1="752.5" y1="1411.9" x2="752.5" y2="1398.2"/>
		<circle class="st2" cx="757.2" cy="1411.9" r="1.7"/>
	</g>
</g>
<rect x="109.7" y="135.6" class="st0" width="16.6" height="7.8"/>
<text transform="matrix(1.0881 0 0 1 109.7135 140.7485)" style="fill:#0000FF; font-family:'MicrosoftSansSerif'; font-size:7.1468px;">save</text>
<path class="st1" d="M126.2,145.6h-15.5c-1.1,0-2-0.9-2-2v-8.8c0-1.1,0.9-2,2-2h15.5c1.1,0,2,0.9,2,2v8.8
	C128.1,144.7,127.2,145.6,126.2,145.6z"/>
<g>
	<g>
		<path class="st2" d="M-19.4,145c5.4,0,10.7,0,16,0c0-4.9,0-9.8,0-14.7c-5.3,0-10.7,0-16,0C-19.4,135.2-19.4,140.1-19.4,145z"/>
		<path class="st2" d="M-19.4,145c0-4.9,0-9.8,0-14.7c5.3,0,10.7,0,16,0c0,4.9,0,9.8,0,14.7C-8.7,145-14,145-19.4,145z"/>
	</g>
	<path class="st2" d="M-18.9,144.5c0,0,7.2-5.1,7.8-5.2c0.6,0,7.3,5.2,7.3,5.2"/>
	<path class="st2" d="M-12.3,140c-0.4-0.5-1.1-0.8-1.9-0.8c-1.3,0-2.4,1-2.4,2.3c0,0.4,0.1,0.8,0.4,1.2L-12.3,140z"/>
</g>
<g>
	<line class="st3" x1="20.6" y1="131" x2="39.6" y2="131"/>
	<line class="st3" x1="30.1" y1="131" x2="30.1" y2="146.3"/>
</g>
<g>
	<path class="st2" d="M-43.3,130.3c0,0.3-0.2,0.5-0.5,0.5h-4.3c-0.3,0-0.5-0.2-0.5-0.5v-0.5c0-0.3,0.2-0.5,0.5-0.5h4.2
		c0.3,0,0.5,0.2,0.5,0.5L-43.3,130.3z"/>
	<line class="st2" x1="-48.2" y1="136" x2="-48.2" y2="143.7"/>
	<line class="st2" x1="-43.8" y1="136.2" x2="-43.8" y2="143.9"/>
	<path class="st2" d="M-52.1,133.6c0,0.1,0,0.2,0,0.3v10.5c0,0.9,0.8,1.7,1.9,1.7h8.7c1,0,1.9-0.7,1.9-1.7v-10.5c0-0.1,0-0.2,0-0.3"
		/>
	<path class="st2" d="M-38.9,132.5c0,0.7-0.5,1.2-1.1,1.2h-12c-0.6,0-1.1-0.5-1.1-1.2v-0.6c0-0.7,0.5-1.2,1.1-1.2h12
		c0.6,0,1.1,0.5,1.1,1.2C-38.9,132-38.9,132.5-38.9,132.5z"/>
</g>
<circle class="st2" cx="70.8" cy="141.2" r="4.7"/>
<g>
	<line class="st2" x1="75.6" y1="127.6" x2="77.1" y2="130.8"/>
	<line class="st2" x1="75.6" y1="127.6" x2="74" y2="130.8"/>
	<line class="st2" x1="75.6" y1="141.2" x2="75.6" y2="127.6"/>
</g>
<circle class="st2" cx="70.8" cy="141.2" r="1.7"/>
<g>
	<g>
		<polyline class="st4" points="-53.5,21.4 -58.4,22 -58,17.1 		"/>
		<path class="st4" d="M-53.5,21.4l7.7-8.1c0.1-0.1,0.1-0.2,0-0.3L-50,9c-0.1-0.1-0.2-0.1-0.4,0l-7.6,8.1"/>
		<line class="st4" x1="-52.2" y1="10.9" x2="-47.7" y2="15.3"/>
		<line class="st4" x1="-58" y1="17.7" x2="-54" y2="21.5"/>
	</g>
</g>
<image style="overflow:visible;enable-background:new    ;" width="529" height="563" xlink:href="../../block de notas/67CCA6BE.jpg"  transform="matrix(5.706926e-02 0 0 5.706926e-02 -74.9845 63.8273)">
</image>
<line class="st5" x1="-56.5" y1="61.8" x2="-50.9" y2="61.8"/>
<path class="st6" d="M-107.8,83.6V70.9c0-1.3-1-2.3-2.3-2.3h-15.7c-1.3,0-2.3,1-2.3,2.3v18.7c0,1.3,1,2.3,2.3,2.3h9.7"/>
<g>
	<line class="st6" x1="-123.8" y1="73.5" x2="-112.7" y2="73.5"/>
	<line class="st6" x1="-123.8" y1="78.8" x2="-119" y2="78.8"/>
	<line class="st6" x1="-123.8" y1="76.2" x2="-112.7" y2="76.2"/>
</g>
<line class="st6" x1="-29.4" y1="67.4" x2="-18.3" y2="67.4"/>
<line class="st6" x1="-28.8" y1="114.4" x2="-17.7" y2="114.4"/>
<line class="st6" x1="-70.9" y1="115.5" x2="-66.1" y2="115.5"/>
<line class="st6" x1="-70.9" y1="112.9" x2="-59.8" y2="112.9"/>
<path class="st6" d="M-16.2,127.7h-13.7c-2.1,0-3.8-1.7-3.8-3.8V105c0-2.1,1.7-3.8,3.8-3.8h13.7c2.1,0,3.8,1.7,3.8,3.8v18.8
	C-12.4,126-14.1,127.7-16.2,127.7z"/>
<path class="st7" d="M-91.3,116.3h-13c-1.9,0-3.5-1.6-3.5-3.5V96.1c0-1.9,1.6-3.5,3.5-3.5h13c1.9,0,3.5,1.6,3.5,3.5v16.6
	C-87.8,114.7-89.4,116.3-91.3,116.3z"/>
<path class="st6" d="M-14.1,88.2h-18.3c-1.5,0-2.7-1.2-2.7-2.7v-22c0-1.5,1.2-2.7,2.7-2.7h18.3c1.5,0,2.7,1.2,2.7,2.7v22
	C-11.3,87-12.6,88.2-14.1,88.2z"/>
<line class="st6" x1="-29.4" y1="73.4" x2="-18.3" y2="73.4"/>
<path class="st6" d="M-43.4,29.2h-18.3c-1.5,0-2.7-1.2-2.7-2.7v-22c0-1.5,1.2-2.7,2.7-2.7h18.3c1.5,0,2.7,1.2,2.7,2.7v22
	C-40.7,28-41.9,29.2-43.4,29.2z"/>
<path class="st8" d="M36.8,17.1c3.2,0.2,6.1,1.6,8.1,3.7"/>
<path class="st8" d="M47.3,30.2c0.2-0.8,0.3-1.6,0.3-2.4c0-2.7-1-5.1-2.6-7"/>
<path class="st8" d="M36.3,17.1c-5.9,0.5-10.5,5.1-10.5,10.7c0,0.8,0.1,1.6,0.3,2.4"/>
<ellipse class="st8" cx="36.8" cy="9" rx="7.9" ry="8"/>
<g>
	<path class="st8" d="M8.5,17.3c-3.4,0.3-6.4,2.1-8.2,4.8"/>
	<path class="st8" d="M10.2,17.3"/>
	<ellipse class="st8" cx="9" cy="9.3" rx="7.9" ry="8"/>
</g>
<path class="st8" d="M10.1,17.3c3.4,0.3,6.4,2.1,8.2,4.8"/>
</svg>
